<svg xmlns="http://www.w3.org/2000/svg" id="viewer" style="transform: scale(1, -1);" width="21.844mm" height="19.304mm" viewBox="0.97 0.97 0.8600000000000001 0.76" xmlns:xlink="http://www.w3.org/1999/xlink">
      <g class="transform-group" style="">
            
        <!---->
  <path fill-rule="nonzero" d="" fill="rgb(0,255,127.5,0.5)"/>
<!---->
  <path fill-rule="nonzero" d="M 1.18 1.1025L 1.13 1.1025L 1.13 1.08L 1.0576 1.08L 1.0576 1.44L 1.1233 1.44L 1.124 1.4401L 1.1243 1.4401L 1.1246 1.4402L 1.125 1.4402L 1.1254 1.4403L 1.126 1.4404L 1.1266 1.4406L 1.1267 1.4406L 1.1283 1.4411L 1.1293 1.4416L 1.1308 1.4424L 1.131 1.4426L 1.1314 1.4428L 1.1319 1.4432L 1.1619 1.4432L 1.1619 1.4668L 1.1376 1.4668L 1.1376 1.5375L 1.18 1.5375L 1.18 1.6125L 1.17 1.6125L 1.17 1.645L 1.685 1.645L 1.685 1.395L 1.65 1.395L 1.65 1.4017L 1.55 1.4017L 1.55 1.3583L 1.65 1.3583L 1.65 1.365L 1.7 1.365L 1.7017 1.3651L 1.7034 1.3654L 1.7051 1.3659L 1.7067 1.3666L 1.7082 1.3674L 1.7096 1.3685L 1.7108 1.3696L 1.712 1.371L 1.7129 1.3724L 1.7137 1.3739L 1.7143 1.3756L 1.7147 1.3772L 1.715 1.379L 1.715 1.66L 1.7149 1.6617L 1.7146 1.6634L 1.7141 1.6651L 1.7134 1.6667L 1.7126 1.6682L 1.7115 1.6696L 1.7104 1.6708L 1.709 1.672L 1.7076 1.6729L 1.7061 1.6737L 1.7044 1.6743L 1.7028 1.6747L 1.701 1.675L 1.155 1.675L 1.1533 1.6749L 1.1516 1.6746L 1.1499 1.6741L 1.1483 1.6734L 1.1468 1.6726L 1.1454 1.6715L 1.1442 1.6704L 1.143 1.669L 1.1421 1.6676L 1.1413 1.6661L 1.1407 1.6644L 1.1403 1.6628L 1.14 1.661L 1.14 1.6125L 1.13 1.6125L 1.13 1.59L 1.1226 1.59L 1.1209 1.5899L 1.1192 1.5896L 1.1175 1.5891L 1.1159 1.5884L 1.1144 1.5876L 1.113 1.5865L 1.1118 1.5854L 1.1106 1.584L 1.1097 1.5826L 1.1089 1.5811L 1.1083 1.5794L 1.1079 1.5778L 1.1076 1.576L 1.1076 1.47L 1.0426 1.47L 1.0409 1.4699L 1.0392 1.4696L 1.0375 1.4691L 1.0359 1.4684L 1.0344 1.4676L 1.033 1.4665L 1.0318 1.4654L 1.0306 1.464L 1.0297 1.4626L 1.0289 1.4611L 1.0283 1.4594L 1.0279 1.4578L 1.0276 1.456L 1.0276 1.065L 1.0277 1.0633L 1.028 1.0616L 1.0285 1.0599L 1.0292 1.0583L 1.03 1.0568L 1.0311 1.0554L 1.0322 1.0542L 1.0336 1.053L 1.035 1.0521L 1.0365 1.0513L 1.0382 1.0507L 1.0398 1.0503L 1.0416 1.05L 1.13 1.05L 1.13 1.0275L 1.18 1.0275L 1.18 1.1025" fill="#282840"/>
<!---->
  <path fill-rule="nonzero" d="M 1.3198 1.4402L 1.3215 1.4406L 1.3231 1.4411L 1.3247 1.4419L 1.3262 1.4428L 1.3267 1.4432L 1.3568 1.4432L 1.3568 1.4668L 1.3324 1.4668L 1.3324 1.565L 1.55 1.565L 1.55 1.5583L 1.65 1.5583L 1.65 1.6017L 1.55 1.6017L 1.55 1.595L 1.31 1.595L 1.31 1.6125L 1.26 1.6125L 1.26 1.5375L 1.3024 1.5375L 1.3024 1.4668L 1.2781 1.4668L 1.2781 1.4432L 1.3082 1.4432L 1.3084 1.443L 1.3098 1.4421L 1.3113 1.4413L 1.313 1.4407L 1.3146 1.4403L 1.3164 1.44L 1.3181 1.44L 1.3198 1.4402" fill="#282840"/>
<!---->
  <path fill-rule="nonzero" d="M 1.65 1.5017L 1.55 1.5017L 1.55 1.4583L 1.65 1.4583L 1.65 1.5017" fill="#282840"/>
<!---->
  <path fill-rule="nonzero" d="M 1.1619 1.4168L 1.0832 1.4168L 1.0832 1.3932L 1.1619 1.3932L 1.1619 1.4168" fill="#282840"/>
<!---->
  <path fill-rule="nonzero" d="M 1.3568 1.4168L 1.2781 1.4168L 1.2781 1.3932L 1.3568 1.3932L 1.3568 1.4168" fill="#282840"/>
<!---->
  <path fill-rule="nonzero" d="M 1.5175 1.165L 1.55 1.165L 1.55 1.1583L 1.65 1.1583L 1.65 1.2017L 1.55 1.2017L 1.55 1.195L 1.48 1.195L 1.4783 1.1949L 1.4766 1.1946L 1.4749 1.1941L 1.4733 1.1934L 1.4718 1.1926L 1.4704 1.1915L 1.4692 1.1904L 1.4689 1.19L 1.4425 1.19L 1.4425 1.18L 1.4124 1.18L 1.4124 1.355L 1.4123 1.3567L 1.412 1.3584L 1.4115 1.3601L 1.4108 1.3617L 1.41 1.3632L 1.4089 1.3646L 1.4078 1.3658L 1.4064 1.367L 1.405 1.3679L 1.4035 1.3687L 1.4018 1.3693L 1.4002 1.3697L 1.3984 1.37L 1.3174 1.37L 1.3157 1.3699L 1.314 1.3696L 1.3123 1.3691L 1.3107 1.3684L 1.3092 1.3676L 1.3082 1.3668L 1.2781 1.3668L 1.2781 1.3432L 1.3082 1.3432L 1.3089 1.3426L 1.3104 1.3417L 1.312 1.341L 1.3136 1.3405L 1.3153 1.3401L 1.3174 1.34L 1.3824 1.34L 1.3824 1.165L 1.3825 1.1633L 1.3828 1.1616L 1.3833 1.1599L 1.384 1.1583L 1.3848 1.1568L 1.3859 1.1554L 1.387 1.1542L 1.3884 1.153L 1.3898 1.1521L 1.3913 1.1513L 1.393 1.1507L 1.3946 1.1503L 1.3964 1.15L 1.4425 1.15L 1.4425 1.14L 1.5175 1.14L 1.5175 1.165" fill="#282840"/>
<!---->
  <path fill-rule="nonzero" d="M 1.1619 1.3668L 1.0832 1.3668L 1.0832 1.3432L 1.1619 1.3432L 1.1619 1.3668" fill="#282840"/>
<!---->
  <path fill-rule="nonzero" d="M 1.65 1.3017L 1.55 1.3017L 1.55 1.295L 1.5175 1.295L 1.5175 1.32L 1.4425 1.32L 1.4425 1.27L 1.4689 1.27L 1.4696 1.2692L 1.471 1.268L 1.4724 1.2671L 1.4739 1.2663L 1.4756 1.2657L 1.4772 1.2653L 1.479 1.265L 1.55 1.265L 1.55 1.2583L 1.65 1.2583L 1.65 1.3017" fill="#282840"/>
<!---->
  <path fill-rule="nonzero" d="M 1.31 1.17L 1.3174 1.17L 1.3191 1.1701L 1.3208 1.1704L 1.3225 1.1709L 1.3241 1.1716L 1.3256 1.1724L 1.327 1.1735L 1.3282 1.1746L 1.3294 1.176L 1.3303 1.1774L 1.3311 1.1789L 1.3317 1.1806L 1.3321 1.1822L 1.3324 1.184L 1.3324 1.2932L 1.3568 1.2932L 1.3568 1.3168L 1.3266 1.3168L 1.3264 1.317L 1.325 1.3179L 1.3235 1.3187L 1.3218 1.3193L 1.3202 1.3197L 1.3184 1.32L 1.3167 1.32L 1.315 1.3198L 1.3133 1.3194L 1.3117 1.3189L 1.3101 1.3181L 1.3086 1.3172L 1.3081 1.3168L 1.2781 1.3168L 1.2781 1.2932L 1.3024 1.2932L 1.3024 1.2225L 1.26 1.2225L 1.26 1.1475L 1.31 1.1475L 1.31 1.17" fill="#282840"/>
<!---->
  <path fill-rule="nonzero" d="M 1.1619 1.3168L 1.0832 1.3168L 1.0832 1.2932L 1.1619 1.2932L 1.1619 1.3168" fill="#282840"/>
<!---->
  <path fill-rule="nonzero" d="M 1.31 1.1025L 1.26 1.1025L 1.26 1.08L 1.235 1.08L 1.235 1.185L 1.2349 1.1867L 1.2346 1.1884L 1.2341 1.1901L 1.2334 1.1917L 1.2326 1.1932L 1.2315 1.1946L 1.2304 1.1958L 1.229 1.197L 1.2276 1.1979L 1.2261 1.1987L 1.2244 1.1993L 1.2228 1.1997L 1.221 1.2L 1.18 1.2L 1.18 1.2225L 1.13 1.2225L 1.13 1.1475L 1.18 1.1475L 1.18 1.17L 1.205 1.17L 1.205 1.065L 1.2051 1.0633L 1.2054 1.0616L 1.2059 1.0599L 1.2066 1.0583L 1.2074 1.0568L 1.2085 1.0554L 1.2096 1.0542L 1.211 1.053L 1.2124 1.0521L 1.2139 1.0513L 1.2156 1.0507L 1.2172 1.0503L 1.219 1.05L 1.26 1.05L 1.26 1.0275L 1.31 1.0275L 1.31 1.1025" fill="#282840"/>
<!---->
  <path fill-rule="nonzero" d="M 1.65 1.1017L 1.55 1.1017L 1.55 1.0583L 1.65 1.0583L 1.65 1.1017" fill="#282840"/>
<!---->
        
        
      </g>
    
    </svg>