<?xml version="1.0" encoding="UTF-8" standalone="no"?>
<!-- Created with Inkscape (http://www.inkscape.org/) -->

<svg
   version="1.1"
   id="svg870"
   width="48.000004"
   height="48.000019"
   viewBox="0 0 48.000004 48.000019"
   sodipodi:docname="export.svg"
   inkscape:version="1.1.2 (0a00cf5339, 2022-02-04)"
   xmlns:inkscape="http://www.inkscape.org/namespaces/inkscape"
   xmlns:sodipodi="http://sodipodi.sourceforge.net/DTD/sodipodi-0.dtd"
   xmlns="http://www.w3.org/2000/svg"
   xmlns:svg="http://www.w3.org/2000/svg">
  <defs
     id="defs874" />
  <sodipodi:namedview
     id="namedview872"
     pagecolor="#ffffff"
     bordercolor="#666666"
     borderopacity="1.0"
     inkscape:pageshadow="2"
     inkscape:pageopacity="0.0"
     inkscape:pagecheckerboard="0"
     showgrid="false"
     inkscape:zoom="3.923041"
     inkscape:cx="27.147307"
     inkscape:cy="39.892522"
     inkscape:window-width="1292"
     inkscape:window-height="704"
     inkscape:window-x="74"
     inkscape:window-y="27"
     inkscape:window-maximized="1"
     inkscape:current-layer="g876" />
  <g
     inkscape:groupmode="layer"
     inkscape:label="Image"
     id="g876"
     transform="translate(0.49499997,-458.10626)">
    <path
       style="fill:#fafafa;stroke-width:0.0490089;fill-opacity:1"
       d="m 22.191386,506.0922 c -1.16203,-0.098 -1.535168,-0.13684 -2.107596,-0.21951 -3.436985,-0.49634 -6.7994,-1.77402 -9.743148,-3.7023 -4.2990265,-2.81604 -7.5529593,-6.89605 -9.3379414,-11.70857 -3.1630968,-8.52809 -1.2355907,-18.05538 5.0221424,-24.82348 3.603975,-3.89791 9.112408,-6.6863 14.549086,-7.36479 1.609184,-0.20083 3.689254,-0.22267 5.293497,-0.0556 7.584358,0.78989 14.281113,5.0175 18.210364,11.49608 1.818135,2.99776 2.93252,6.34327 3.337129,10.01845 0.119599,1.08632 0.120221,3.59905 0.0012,4.70436 -0.761779,7.07249 -4.32296,13.20925 -10.021304,17.26908 -3.305117,2.35476 -7.277466,3.84102 -11.478342,4.29463 -0.665932,0.0719 -3.215324,0.13463 -3.725054,0.0917 z m 9.697174,-10.45822 c 0.890636,-0.045 0.979797,-0.0584 1.468602,-0.22198 0.667123,-0.22319 1.194047,-0.50494 1.692292,-0.90489 0.538075,-0.43192 0.90981,-0.89086 1.232532,-1.52165 l 0.270464,-0.52864 v -6.37551 -6.37551 l -0.202668,-0.40319 c -0.285319,-0.56763 -0.54993,-0.94057 -0.932121,-1.3137 -0.598106,-0.58394 -1.415638,-1.05019 -2.269479,-1.29432 -0.587608,-0.16801 -1.707712,-0.22974 -3.825278,-0.21082 l -1.617457,0.0145 -0.01292,1.62938 -0.01291,1.62937 1.605866,4e-5 c 2.566577,5e-5 3.235161,0.0986 3.762932,0.55476 l 0.180435,0.15594 -0.04143,5.70453 -0.04143,5.70452 -0.319923,0.16669 c -0.290417,0.1513 -0.376319,0.17077 -0.931264,0.21108 -0.795627,0.0578 -15.962028,0.058 -16.757273,1.9e-4 -0.554803,-0.0403 -0.637033,-0.0591 -0.931264,-0.21339 l -0.322726,-0.1692 -0.04026,-5.7023 -0.04026,-5.7023 0.162799,-0.13852 c 0.55865,-0.47531 1.196885,-0.57193 3.778225,-0.572 l 1.605865,-4e-5 -0.01292,-1.62937 -0.01291,-1.62938 -2.180848,0.0109 c -1.199467,0.006 -2.372364,0.0322 -2.60644,0.0584 -0.479404,0.0535 -1.161315,0.26621 -1.667049,0.51997 -1.005922,0.50473 -1.665707,1.17209 -2.189999,2.21515 l -0.202667,0.40319 v 6.36288 6.36288 l 0.224665,0.46151 c 0.280579,0.57636 0.557532,0.96584 0.958324,1.34768 0.90012,0.85757 2.069968,1.34246 3.399807,1.40916 0.807421,0.0405 15.995868,0.0261 16.828692,-0.0159 z M 23.818681,482.0542 c 0.716397,-0.1516 1.198316,-0.68149 1.314238,-1.44507 0.03089,-0.20345 0.06342,-2.10643 0.08188,-4.78885 l 0.03062,-4.45123 0.837897,0.82856 c 1.18663,1.1734 1.564596,1.50855 1.869418,1.65765 0.245618,0.12015 0.305714,0.12914 0.745359,0.11148 0.437155,-0.0176 0.505529,-0.0342 0.796573,-0.19333 0.526248,-0.28782 0.833016,-0.79553 0.833016,-1.37869 0,-0.38393 -0.08888,-0.63442 -0.347739,-0.98 -0.32753,-0.43726 -2.52818,-2.71667 -4.104804,-4.2517 -1.560116,-1.51896 -1.597827,-1.54362 -2.360758,-1.54362 h -0.522189 l -0.26562,0.20595 c -0.754177,0.58476 -5.115941,4.95705 -5.63639,5.65 -0.302636,0.40294 -0.378833,0.70838 -0.293387,1.17609 0.09777,0.53517 0.43266,0.96559 0.928323,1.19313 0.317316,0.14566 1.160629,0.15084 1.451908,0.009 0.107831,-0.0525 0.548956,-0.43874 0.980278,-0.85822 0.431322,-0.41948 0.960672,-0.9273 1.176333,-1.1285 l 0.392111,-0.36582 0.03247,0.24447 c 0.01786,0.13446 0.03627,1.44628 0.04091,2.91517 0.0047,1.46889 0.02428,3.47559 0.04363,4.45934 0.033,1.67745 0.04167,1.80302 0.139478,2.01992 0.192493,0.42686 0.706648,0.82011 1.198997,0.91704 0.299617,0.059 0.34696,0.0588 0.63745,-0.003 z"
       id="path960" />
  </g>
</svg>
